<?xml version="1.0" standalone="no"?><!DOCTYPE svg PUBLIC "-//W3C//DTD SVG 1.1//EN" "http://www.w3.org/Graphics/SVG/1.1/DTD/svg11.dtd"><svg t="1770907552450" class="icon" viewBox="0 0 1024 1024" version="1.1" xmlns="http://www.w3.org/2000/svg" p-id="17419" xmlns:xlink="http://www.w3.org/1999/xlink" width="200" height="200"><path d="M938.666667 192v640q0 44.202667-31.232 75.434667T832 938.666667h-640q-44.202667 0-75.434667-31.232Q85.333333 876.16 85.333333 832v-640q0-44.202667 31.232-75.434667T192 85.333333h640q44.16 0 75.434667 31.232Q938.666667 147.797333 938.666667 192z m-85.333334 0q0-8.832-6.229333-15.104Q840.832 170.666667 832 170.666667h-640q-8.832 0-15.104 6.229333Q170.666667 183.168 170.666667 192v640q0 8.832 6.229333 15.104 6.272 6.229333 15.104 6.229333h640q8.832 0 15.104-6.229333 6.229333-6.272 6.229333-15.104v-640z" p-id="17420" data-spm-anchor-id="a313x.search_index.0.i5.57b03a816sa3vx" class="selected" fill="#1296db"></path><path d="M369.92 578.304l190.72-322.688a42.666667 42.666667 0 0 1 79.36 21.376V277.333333a42.666667 42.666667 0 0 1-5.973333 21.717334l-138.666667 234.666666-34.645333 58.666667-17.322667 29.312a42.666667 42.666667 0 1 1-73.472-43.392zM374.058667 739.029333l-17.322667 29.354667a42.666667 42.666667 0 0 1-73.472-43.434667l17.322667-29.312a42.666667 42.666667 0 1 1 73.472 43.392z" p-id="17421" data-spm-anchor-id="a313x.search_index.0.i8.57b03a816sa3vx" class="selected" fill="#1296db"></path><path d="M256 661.333333h234.666667a42.666667 42.666667 0 0 0 0-85.333333H256a42.666667 42.666667 0 1 0 0 85.333333zM640 661.333333h128a42.666667 42.666667 0 0 0 0-85.333333h-128a42.666667 42.666667 0 1 0 0 85.333333zM534.656 401.066667l-93.312-146.645334-0.298667-0.426666a42.666667 42.666667 0 0 0-26.453333-18.346667l-0.512-0.085333a42.666667 42.666667 0 0 0-31.658667 5.76l-0.426666 0.298666a42.666667 42.666667 0 0 0-18.346667 26.453334l-0.085333 0.512a42.666667 42.666667 0 0 0 5.76 31.658666l74.666666 117.333334 18.688 29.312a42.666667 42.666667 0 0 0 36.010667 19.754666h1.066667a42.666667 42.666667 0 0 0 41.6-42.666666v-1.066667a42.666667 42.666667 0 0 0-6.698667-21.802667z" p-id="17422" data-spm-anchor-id="a313x.search_index.0.i7.57b03a816sa3vx" class="selected" fill="#1296db"></path><path d="M609.322667 518.4l18.688 29.354667 112 176a42.666667 42.666667 0 0 1-34.944 65.578666H704a42.666667 42.666667 0 0 1-36.010667-19.754666l-74.666666-117.333334-55.978667-88.021333a42.666667 42.666667 0 0 1-5.76-31.658667l0.085333-0.469333a42.666667 42.666667 0 0 1 18.346667-26.453333l0.426667-0.298667a42.666667 42.666667 0 0 1 31.658666-5.76l0.469334 0.085333a42.666667 42.666667 0 0 1 26.453333 18.346667l0.298667 0.426667z" p-id="17423" data-spm-anchor-id="a313x.search_index.0.i6.57b03a816sa3vx" class="selected" fill="#1296db"></path></svg>