<?xml version="1.0" standalone="no"?><!DOCTYPE svg PUBLIC "-//W3C//DTD SVG 1.1//EN" "http://www.w3.org/Graphics/SVG/1.1/DTD/svg11.dtd"><svg t="1770907217478" class="icon" viewBox="0 0 1024 1024" version="1.1" xmlns="http://www.w3.org/2000/svg" p-id="10029" xmlns:xlink="http://www.w3.org/1999/xlink" width="200" height="200"><path d="M538.581333 72.533333a67.2 67.2 0 0 1 66.922667 61.141334l2.922667 32.469333 7.445333 2.133333a357.12 357.12 0 0 1 66.133333 27.456l6.314667 3.52 25.066667-20.864a67.2 67.2 0 0 1 86.336 0.192l4.245333 3.882667 37.568 37.568a67.2 67.2 0 0 1 4.074667 90.581333l-20.906667 25.024 3.584 6.4c11.306667 21.013333 20.522667 43.178667 27.456 66.133334l2.090667 7.381333 32.469333 2.944a67.2 67.2 0 0 1 60.992 61.994667l0.170667 4.928v53.162666a67.2 67.2 0 0 1-61.141334 66.922667l-32.490666 2.922667-2.090667 7.445333a357.12 357.12 0 0 1-27.477333 66.133333l-3.562667 6.314667 20.906667 25.066667a67.2 67.2 0 0 1-0.192 86.336l-3.882667 4.245333-37.568 37.568a67.2 67.2 0 0 1-90.602667 4.053333l-25.045333-20.885333-6.293333 3.562667a357.12 357.12 0 0 1-66.154667 27.477333l-7.466667 2.090667-2.901333 32.469333a67.2 67.2 0 0 1-61.994667 60.992l-4.928 0.170667h-53.162666a67.2 67.2 0 0 1-66.922667-61.162667l-2.944-32.469333-7.381333-2.090667a357.12 357.12 0 0 1-66.133334-27.456l-6.4-3.584-25.024 20.906667a67.2 67.2 0 0 1-86.336-0.192l-4.245333-3.882667-37.568-37.568a67.2 67.2 0 0 1-4.053333-90.602667l20.864-25.045333-3.541334-6.293333a357.12 357.12 0 0 1-27.477333-66.154667l-2.112-7.466667-32.426667-2.901333a67.2 67.2 0 0 1-61.013333-61.994667l-0.170667-4.928v-53.162666a67.2 67.2 0 0 1 61.162667-66.922667l32.448-2.944 2.112-7.381333a357.12 357.12 0 0 1 27.456-66.133334l3.562667-6.4-20.906667-25.024a67.2 67.2 0 0 1 0.213333-86.336l3.882667-4.245333 37.568-37.568a67.2 67.2 0 0 1 90.581333-4.074667l25.024 20.885334 6.4-3.562667a357.12 357.12 0 0 1 66.133334-27.456l7.381333-2.112 2.944-32.426667a67.2 67.2 0 0 1 61.994667-61.013333l4.928-0.170667zM512 343.466667a168.533333 168.533333 0 1 0 0 337.066666 168.533333 168.533333 0 0 0 0-337.066666z m0 64a104.533333 104.533333 0 1 1 0 209.066666 104.533333 104.533333 0 0 1 0-209.066666z" fill="#515151" p-id="10030" data-spm-anchor-id="a313x.search_index.0.i2.57b03a816sa3vx" class="selected"></path></svg>