<?xml version="1.0" standalone="no"?><!DOCTYPE svg PUBLIC "-//W3C//DTD SVG 1.1//EN" "http://www.w3.org/Graphics/SVG/1.1/DTD/svg11.dtd"><svg t="1770906360754" class="icon" viewBox="0 0 1024 1024" version="1.1" xmlns="http://www.w3.org/2000/svg" p-id="1735" xmlns:xlink="http://www.w3.org/1999/xlink" width="200" height="200"><path d="M61.44 225.28v573.44a81.92 81.92 0 0 0 81.92 81.92h737.28a81.92 81.92 0 0 0 81.92-81.92v-573.44a81.92 81.92 0 0 0-81.92-81.92H143.36a81.92 81.92 0 0 0-81.92 81.92z m173.6704 137.216a40.96 40.96 0 0 1 57.7536-4.5056l143.36 122.88a40.96 40.96 0 0 1 0 62.2592l-143.36 122.88a40.96 40.96 0 1 1-53.248-62.2592l107.02848-91.7504-107.06944-91.7504a40.96 40.96 0 0 1-4.42368-57.7536z m215.4496 313.344a40.96 40.96 0 0 1 40.96-40.96H757.76a40.96 40.96 0 1 1 0 81.92h-266.24a40.96 40.96 0 0 1-40.96-40.96z" fill="#000000" fill-opacity=".85" p-id="1736"></path></svg>